<mxfile host="app.diagrams.net" modified="2024-04-02T12:41:50.120Z" agent="Mozilla/5.0 (Windows NT 10.0; Win64; x64) AppleWebKit/537.36 (KHTML, like Gecko) Chrome/122.0.0.0 Safari/537.36" etag="41VPSqMNZQIthV9EZQxW" version="24.2.1" type="device">
  <diagram name="Page-1" id="KcoUCer-cBKBHuBMyaUO">
    <mxGraphModel dx="2583" dy="2198" grid="1" gridSize="10" guides="1" tooltips="1" connect="1" arrows="1" fold="1" page="1" pageScale="1" pageWidth="850" pageHeight="1100" math="0" shadow="0">
      <root>
        <mxCell id="0" />
        <mxCell id="1" parent="0" />
        <mxCell id="Y1e_YjSV7FnNWdBsGaUr-1" value="Veiculo" style="rounded=0;whiteSpace=wrap;html=1;" vertex="1" parent="1">
          <mxGeometry y="150" width="120" height="60" as="geometry" />
        </mxCell>
        <mxCell id="Y1e_YjSV7FnNWdBsGaUr-27" style="edgeStyle=none;rounded=0;orthogonalLoop=1;jettySize=auto;html=1;exitX=1;exitY=0;exitDx=0;exitDy=0;entryX=0.5;entryY=1;entryDx=0;entryDy=0;strokeColor=default;align=center;verticalAlign=middle;fontFamily=Helvetica;fontSize=11;fontColor=default;labelBackgroundColor=default;endArrow=none;endFill=0;" edge="1" parent="1" source="Y1e_YjSV7FnNWdBsGaUr-2" target="Y1e_YjSV7FnNWdBsGaUr-1">
          <mxGeometry relative="1" as="geometry" />
        </mxCell>
        <mxCell id="Y1e_YjSV7FnNWdBsGaUr-2" value="placa" style="ellipse;whiteSpace=wrap;html=1;" vertex="1" parent="1">
          <mxGeometry x="-290" y="320" width="120" height="80" as="geometry" />
        </mxCell>
        <mxCell id="Y1e_YjSV7FnNWdBsGaUr-23" style="edgeStyle=none;rounded=0;orthogonalLoop=1;jettySize=auto;html=1;exitX=0.5;exitY=0;exitDx=0;exitDy=0;entryX=0.5;entryY=1;entryDx=0;entryDy=0;strokeColor=default;align=center;verticalAlign=middle;fontFamily=Helvetica;fontSize=11;fontColor=default;labelBackgroundColor=default;endArrow=none;endFill=0;" edge="1" parent="1" source="Y1e_YjSV7FnNWdBsGaUr-3" target="Y1e_YjSV7FnNWdBsGaUr-1">
          <mxGeometry relative="1" as="geometry" />
        </mxCell>
        <mxCell id="Y1e_YjSV7FnNWdBsGaUr-3" value="modelo" style="ellipse;whiteSpace=wrap;html=1;" vertex="1" parent="1">
          <mxGeometry x="-150" y="320" width="120" height="80" as="geometry" />
        </mxCell>
        <mxCell id="Y1e_YjSV7FnNWdBsGaUr-24" style="edgeStyle=none;rounded=0;orthogonalLoop=1;jettySize=auto;html=1;exitX=0.5;exitY=0;exitDx=0;exitDy=0;strokeColor=default;align=center;verticalAlign=middle;fontFamily=Helvetica;fontSize=11;fontColor=default;labelBackgroundColor=default;endArrow=none;endFill=0;" edge="1" parent="1" source="Y1e_YjSV7FnNWdBsGaUr-4">
          <mxGeometry relative="1" as="geometry">
            <mxPoint x="60" y="210" as="targetPoint" />
          </mxGeometry>
        </mxCell>
        <mxCell id="Y1e_YjSV7FnNWdBsGaUr-4" value="marca" style="ellipse;whiteSpace=wrap;html=1;" vertex="1" parent="1">
          <mxGeometry x="-10" y="320" width="120" height="80" as="geometry" />
        </mxCell>
        <mxCell id="Y1e_YjSV7FnNWdBsGaUr-25" style="edgeStyle=none;rounded=0;orthogonalLoop=1;jettySize=auto;html=1;exitX=0.5;exitY=0;exitDx=0;exitDy=0;entryX=0.5;entryY=1;entryDx=0;entryDy=0;strokeColor=default;align=center;verticalAlign=middle;fontFamily=Helvetica;fontSize=11;fontColor=default;labelBackgroundColor=default;endArrow=none;endFill=0;" edge="1" parent="1" source="Y1e_YjSV7FnNWdBsGaUr-5" target="Y1e_YjSV7FnNWdBsGaUr-1">
          <mxGeometry relative="1" as="geometry" />
        </mxCell>
        <mxCell id="Y1e_YjSV7FnNWdBsGaUr-5" value="tipo" style="ellipse;whiteSpace=wrap;html=1;" vertex="1" parent="1">
          <mxGeometry x="140" y="320" width="120" height="80" as="geometry" />
        </mxCell>
        <mxCell id="Y1e_YjSV7FnNWdBsGaUr-26" style="edgeStyle=none;rounded=0;orthogonalLoop=1;jettySize=auto;html=1;exitX=0;exitY=0;exitDx=0;exitDy=0;entryX=0.5;entryY=1;entryDx=0;entryDy=0;strokeColor=default;align=center;verticalAlign=middle;fontFamily=Helvetica;fontSize=11;fontColor=default;labelBackgroundColor=default;endArrow=none;endFill=0;" edge="1" parent="1" source="Y1e_YjSV7FnNWdBsGaUr-7" target="Y1e_YjSV7FnNWdBsGaUr-1">
          <mxGeometry relative="1" as="geometry" />
        </mxCell>
        <mxCell id="Y1e_YjSV7FnNWdBsGaUr-7" value="diaria" style="ellipse;whiteSpace=wrap;html=1;" vertex="1" parent="1">
          <mxGeometry x="280" y="320" width="120" height="80" as="geometry" />
        </mxCell>
        <mxCell id="Y1e_YjSV7FnNWdBsGaUr-8" value="Cliente" style="rounded=0;whiteSpace=wrap;html=1;" vertex="1" parent="1">
          <mxGeometry x="1480" y="150" width="120" height="60" as="geometry" />
        </mxCell>
        <mxCell id="Y1e_YjSV7FnNWdBsGaUr-28" style="edgeStyle=none;rounded=0;orthogonalLoop=1;jettySize=auto;html=1;exitX=0.5;exitY=0;exitDx=0;exitDy=0;entryX=0.5;entryY=1;entryDx=0;entryDy=0;strokeColor=default;align=center;verticalAlign=middle;fontFamily=Helvetica;fontSize=11;fontColor=default;labelBackgroundColor=default;endArrow=none;endFill=0;" edge="1" parent="1" source="Y1e_YjSV7FnNWdBsGaUr-9" target="Y1e_YjSV7FnNWdBsGaUr-8">
          <mxGeometry relative="1" as="geometry" />
        </mxCell>
        <mxCell id="Y1e_YjSV7FnNWdBsGaUr-9" value="cpf_cliente" style="ellipse;whiteSpace=wrap;html=1;" vertex="1" parent="1">
          <mxGeometry x="1330" y="320" width="120" height="80" as="geometry" />
        </mxCell>
        <mxCell id="Y1e_YjSV7FnNWdBsGaUr-29" style="edgeStyle=none;rounded=0;orthogonalLoop=1;jettySize=auto;html=1;exitX=0.5;exitY=0;exitDx=0;exitDy=0;entryX=0.5;entryY=1;entryDx=0;entryDy=0;strokeColor=default;align=center;verticalAlign=middle;fontFamily=Helvetica;fontSize=11;fontColor=default;labelBackgroundColor=default;endArrow=none;endFill=0;" edge="1" parent="1" source="Y1e_YjSV7FnNWdBsGaUr-10" target="Y1e_YjSV7FnNWdBsGaUr-8">
          <mxGeometry relative="1" as="geometry" />
        </mxCell>
        <mxCell id="Y1e_YjSV7FnNWdBsGaUr-10" value="nome_cliente" style="ellipse;whiteSpace=wrap;html=1;" vertex="1" parent="1">
          <mxGeometry x="1470" y="320" width="120" height="80" as="geometry" />
        </mxCell>
        <mxCell id="Y1e_YjSV7FnNWdBsGaUr-30" style="edgeStyle=none;rounded=0;orthogonalLoop=1;jettySize=auto;html=1;exitX=0.5;exitY=0;exitDx=0;exitDy=0;strokeColor=default;align=center;verticalAlign=middle;fontFamily=Helvetica;fontSize=11;fontColor=default;labelBackgroundColor=default;endArrow=none;endFill=0;" edge="1" parent="1">
          <mxGeometry relative="1" as="geometry">
            <mxPoint x="1540" y="210" as="targetPoint" />
            <mxPoint x="1670" y="320" as="sourcePoint" />
          </mxGeometry>
        </mxCell>
        <mxCell id="Y1e_YjSV7FnNWdBsGaUr-42" style="edgeStyle=none;rounded=0;orthogonalLoop=1;jettySize=auto;html=1;exitX=1;exitY=0.5;exitDx=0;exitDy=0;entryX=0;entryY=0.5;entryDx=0;entryDy=0;strokeColor=default;align=center;verticalAlign=middle;fontFamily=Helvetica;fontSize=11;fontColor=default;labelBackgroundColor=default;endArrow=none;endFill=0;" edge="1" parent="1" source="Y1e_YjSV7FnNWdBsGaUr-14" target="Y1e_YjSV7FnNWdBsGaUr-38">
          <mxGeometry relative="1" as="geometry" />
        </mxCell>
        <mxCell id="Y1e_YjSV7FnNWdBsGaUr-46" value="N" style="edgeLabel;html=1;align=center;verticalAlign=middle;resizable=0;points=[];fontFamily=Helvetica;fontSize=11;fontColor=default;labelBackgroundColor=default;" vertex="1" connectable="0" parent="Y1e_YjSV7FnNWdBsGaUr-42">
          <mxGeometry x="-0.7274" y="-3" relative="1" as="geometry">
            <mxPoint x="1" as="offset" />
          </mxGeometry>
        </mxCell>
        <mxCell id="Y1e_YjSV7FnNWdBsGaUr-52" style="edgeStyle=none;rounded=0;orthogonalLoop=1;jettySize=auto;html=1;exitX=0.5;exitY=0;exitDx=0;exitDy=0;entryX=0.5;entryY=1;entryDx=0;entryDy=0;strokeColor=default;align=center;verticalAlign=middle;fontFamily=Helvetica;fontSize=11;fontColor=default;labelBackgroundColor=default;endArrow=none;endFill=0;" edge="1" parent="1" source="Y1e_YjSV7FnNWdBsGaUr-14" target="Y1e_YjSV7FnNWdBsGaUr-50">
          <mxGeometry relative="1" as="geometry" />
        </mxCell>
        <mxCell id="Y1e_YjSV7FnNWdBsGaUr-14" value="Aluguel" style="rounded=0;whiteSpace=wrap;html=1;" vertex="1" parent="1">
          <mxGeometry x="805" y="150" width="120" height="60" as="geometry" />
        </mxCell>
        <mxCell id="Y1e_YjSV7FnNWdBsGaUr-31" style="edgeStyle=none;rounded=0;orthogonalLoop=1;jettySize=auto;html=1;exitX=0.5;exitY=0;exitDx=0;exitDy=0;entryX=0.5;entryY=1;entryDx=0;entryDy=0;strokeColor=default;align=center;verticalAlign=middle;fontFamily=Helvetica;fontSize=11;fontColor=default;labelBackgroundColor=default;endArrow=none;endFill=0;" edge="1" parent="1" source="Y1e_YjSV7FnNWdBsGaUr-15" target="Y1e_YjSV7FnNWdBsGaUr-14">
          <mxGeometry relative="1" as="geometry" />
        </mxCell>
        <mxCell id="Y1e_YjSV7FnNWdBsGaUr-15" value="id_alugel" style="ellipse;whiteSpace=wrap;html=1;" vertex="1" parent="1">
          <mxGeometry x="445" y="320" width="120" height="80" as="geometry" />
        </mxCell>
        <mxCell id="Y1e_YjSV7FnNWdBsGaUr-32" style="edgeStyle=none;rounded=0;orthogonalLoop=1;jettySize=auto;html=1;exitX=0.5;exitY=0;exitDx=0;exitDy=0;strokeColor=default;align=center;verticalAlign=middle;fontFamily=Helvetica;fontSize=11;fontColor=default;labelBackgroundColor=default;endArrow=none;endFill=0;" edge="1" parent="1" source="Y1e_YjSV7FnNWdBsGaUr-16">
          <mxGeometry relative="1" as="geometry">
            <mxPoint x="865" y="210" as="targetPoint" />
          </mxGeometry>
        </mxCell>
        <mxCell id="Y1e_YjSV7FnNWdBsGaUr-16" value="reserva" style="ellipse;whiteSpace=wrap;html=1;" vertex="1" parent="1">
          <mxGeometry x="585" y="320" width="120" height="80" as="geometry" />
        </mxCell>
        <mxCell id="Y1e_YjSV7FnNWdBsGaUr-33" style="edgeStyle=none;rounded=0;orthogonalLoop=1;jettySize=auto;html=1;exitX=0.5;exitY=0;exitDx=0;exitDy=0;strokeColor=default;align=center;verticalAlign=middle;fontFamily=Helvetica;fontSize=11;fontColor=default;labelBackgroundColor=default;endArrow=none;endFill=0;" edge="1" parent="1" source="Y1e_YjSV7FnNWdBsGaUr-17">
          <mxGeometry relative="1" as="geometry">
            <mxPoint x="865" y="210" as="targetPoint" />
          </mxGeometry>
        </mxCell>
        <mxCell id="Y1e_YjSV7FnNWdBsGaUr-17" value="retirada" style="ellipse;whiteSpace=wrap;html=1;" vertex="1" parent="1">
          <mxGeometry x="735" y="320" width="120" height="80" as="geometry" />
        </mxCell>
        <mxCell id="Y1e_YjSV7FnNWdBsGaUr-34" style="edgeStyle=none;rounded=0;orthogonalLoop=1;jettySize=auto;html=1;exitX=0.5;exitY=0;exitDx=0;exitDy=0;strokeColor=default;align=center;verticalAlign=middle;fontFamily=Helvetica;fontSize=11;fontColor=default;labelBackgroundColor=default;endArrow=none;endFill=0;" edge="1" parent="1" source="Y1e_YjSV7FnNWdBsGaUr-18">
          <mxGeometry relative="1" as="geometry">
            <mxPoint x="865" y="210" as="targetPoint" />
          </mxGeometry>
        </mxCell>
        <mxCell id="Y1e_YjSV7FnNWdBsGaUr-18" value="devolucao" style="ellipse;whiteSpace=wrap;html=1;" vertex="1" parent="1">
          <mxGeometry x="875" y="320" width="120" height="80" as="geometry" />
        </mxCell>
        <mxCell id="Y1e_YjSV7FnNWdBsGaUr-35" style="edgeStyle=none;rounded=0;orthogonalLoop=1;jettySize=auto;html=1;exitX=0.5;exitY=0;exitDx=0;exitDy=0;entryX=0.5;entryY=1;entryDx=0;entryDy=0;strokeColor=default;align=center;verticalAlign=middle;fontFamily=Helvetica;fontSize=11;fontColor=default;labelBackgroundColor=default;endArrow=none;endFill=0;" edge="1" parent="1" source="Y1e_YjSV7FnNWdBsGaUr-19" target="Y1e_YjSV7FnNWdBsGaUr-14">
          <mxGeometry relative="1" as="geometry" />
        </mxCell>
        <mxCell id="Y1e_YjSV7FnNWdBsGaUr-19" value="&lt;u&gt;placa&lt;/u&gt;" style="ellipse;whiteSpace=wrap;html=1;" vertex="1" parent="1">
          <mxGeometry x="1015" y="320" width="120" height="80" as="geometry" />
        </mxCell>
        <mxCell id="Y1e_YjSV7FnNWdBsGaUr-36" style="edgeStyle=none;rounded=0;orthogonalLoop=1;jettySize=auto;html=1;exitX=0.5;exitY=0;exitDx=0;exitDy=0;strokeColor=default;align=center;verticalAlign=middle;fontFamily=Helvetica;fontSize=11;fontColor=default;labelBackgroundColor=default;endArrow=none;endFill=0;" edge="1" parent="1" source="Y1e_YjSV7FnNWdBsGaUr-20">
          <mxGeometry relative="1" as="geometry">
            <mxPoint x="865" y="210" as="targetPoint" />
          </mxGeometry>
        </mxCell>
        <mxCell id="Y1e_YjSV7FnNWdBsGaUr-20" value="&lt;u&gt;id_cliente&lt;/u&gt;" style="ellipse;whiteSpace=wrap;html=1;" vertex="1" parent="1">
          <mxGeometry x="1155" y="320" width="120" height="80" as="geometry" />
        </mxCell>
        <mxCell id="Y1e_YjSV7FnNWdBsGaUr-41" style="edgeStyle=none;rounded=0;orthogonalLoop=1;jettySize=auto;html=1;exitX=1;exitY=0.5;exitDx=0;exitDy=0;entryX=0;entryY=0.5;entryDx=0;entryDy=0;strokeColor=default;align=center;verticalAlign=middle;fontFamily=Helvetica;fontSize=11;fontColor=default;labelBackgroundColor=default;endArrow=none;endFill=0;" edge="1" parent="1" source="Y1e_YjSV7FnNWdBsGaUr-37" target="Y1e_YjSV7FnNWdBsGaUr-14">
          <mxGeometry relative="1" as="geometry" />
        </mxCell>
        <mxCell id="Y1e_YjSV7FnNWdBsGaUr-45" value="N" style="edgeLabel;html=1;align=center;verticalAlign=middle;resizable=0;points=[];fontFamily=Helvetica;fontSize=11;fontColor=default;labelBackgroundColor=default;" vertex="1" connectable="0" parent="Y1e_YjSV7FnNWdBsGaUr-41">
          <mxGeometry x="0.712" y="-3" relative="1" as="geometry">
            <mxPoint x="1" as="offset" />
          </mxGeometry>
        </mxCell>
        <mxCell id="Y1e_YjSV7FnNWdBsGaUr-37" value="possui" style="rhombus;whiteSpace=wrap;html=1;fontFamily=Helvetica;fontSize=11;fontColor=default;labelBackgroundColor=default;" vertex="1" parent="1">
          <mxGeometry x="405" y="140" width="150" height="80" as="geometry" />
        </mxCell>
        <mxCell id="Y1e_YjSV7FnNWdBsGaUr-43" style="edgeStyle=none;rounded=0;orthogonalLoop=1;jettySize=auto;html=1;exitX=1;exitY=0.5;exitDx=0;exitDy=0;strokeColor=default;align=center;verticalAlign=middle;fontFamily=Helvetica;fontSize=11;fontColor=default;labelBackgroundColor=default;endArrow=none;endFill=0;" edge="1" parent="1" source="Y1e_YjSV7FnNWdBsGaUr-38" target="Y1e_YjSV7FnNWdBsGaUr-8">
          <mxGeometry relative="1" as="geometry" />
        </mxCell>
        <mxCell id="Y1e_YjSV7FnNWdBsGaUr-47" value="I" style="edgeLabel;html=1;align=center;verticalAlign=middle;resizable=0;points=[];fontFamily=Helvetica;fontSize=11;fontColor=default;labelBackgroundColor=default;" vertex="1" connectable="0" parent="Y1e_YjSV7FnNWdBsGaUr-43">
          <mxGeometry x="0.6741" y="-1" relative="1" as="geometry">
            <mxPoint x="1" as="offset" />
          </mxGeometry>
        </mxCell>
        <mxCell id="Y1e_YjSV7FnNWdBsGaUr-48" value="1" style="edgeLabel;html=1;align=center;verticalAlign=middle;resizable=0;points=[];fontFamily=Helvetica;fontSize=11;fontColor=default;labelBackgroundColor=default;" vertex="1" connectable="0" parent="Y1e_YjSV7FnNWdBsGaUr-43">
          <mxGeometry x="0.6741" y="6" relative="1" as="geometry">
            <mxPoint x="1" as="offset" />
          </mxGeometry>
        </mxCell>
        <mxCell id="Y1e_YjSV7FnNWdBsGaUr-38" value="possui" style="rhombus;whiteSpace=wrap;html=1;fontFamily=Helvetica;fontSize=11;fontColor=default;labelBackgroundColor=default;" vertex="1" parent="1">
          <mxGeometry x="1150" y="140" width="150" height="80" as="geometry" />
        </mxCell>
        <mxCell id="Y1e_YjSV7FnNWdBsGaUr-39" style="edgeStyle=none;rounded=0;orthogonalLoop=1;jettySize=auto;html=1;exitX=1;exitY=0.5;exitDx=0;exitDy=0;entryX=0.082;entryY=0.538;entryDx=0;entryDy=0;entryPerimeter=0;strokeColor=default;align=center;verticalAlign=middle;fontFamily=Helvetica;fontSize=11;fontColor=default;labelBackgroundColor=default;endArrow=none;endFill=0;" edge="1" parent="1" source="Y1e_YjSV7FnNWdBsGaUr-1" target="Y1e_YjSV7FnNWdBsGaUr-37">
          <mxGeometry relative="1" as="geometry" />
        </mxCell>
        <mxCell id="Y1e_YjSV7FnNWdBsGaUr-44" value="1" style="edgeLabel;html=1;align=center;verticalAlign=middle;resizable=0;points=[];fontFamily=Helvetica;fontSize=11;fontColor=default;labelBackgroundColor=default;" vertex="1" connectable="0" parent="Y1e_YjSV7FnNWdBsGaUr-39">
          <mxGeometry x="-0.6702" y="-2" relative="1" as="geometry">
            <mxPoint x="1" as="offset" />
          </mxGeometry>
        </mxCell>
        <mxCell id="Y1e_YjSV7FnNWdBsGaUr-49" value="telefone" style="ellipse;shape=doubleEllipse;margin=3;whiteSpace=wrap;html=1;align=center;fontFamily=Helvetica;fontSize=11;fontColor=default;labelBackgroundColor=default;" vertex="1" parent="1">
          <mxGeometry x="1610" y="320" width="120" height="85" as="geometry" />
        </mxCell>
        <mxCell id="Y1e_YjSV7FnNWdBsGaUr-50" value="status" style="ellipse;whiteSpace=wrap;html=1;" vertex="1" parent="1">
          <mxGeometry x="720" y="-20" width="120" height="80" as="geometry" />
        </mxCell>
        <mxCell id="Y1e_YjSV7FnNWdBsGaUr-53" style="edgeStyle=none;rounded=0;orthogonalLoop=1;jettySize=auto;html=1;exitX=0.5;exitY=1;exitDx=0;exitDy=0;entryX=0.5;entryY=0;entryDx=0;entryDy=0;strokeColor=default;align=center;verticalAlign=middle;fontFamily=Helvetica;fontSize=11;fontColor=default;labelBackgroundColor=default;endArrow=none;endFill=0;" edge="1" parent="1" source="Y1e_YjSV7FnNWdBsGaUr-51" target="Y1e_YjSV7FnNWdBsGaUr-14">
          <mxGeometry relative="1" as="geometry" />
        </mxCell>
        <mxCell id="Y1e_YjSV7FnNWdBsGaUr-51" value="subtotal" style="ellipse;whiteSpace=wrap;html=1;" vertex="1" parent="1">
          <mxGeometry x="875" y="-20" width="120" height="80" as="geometry" />
        </mxCell>
      </root>
    </mxGraphModel>
  </diagram>
</mxfile>
